<svg width="50" height="34" viewBox="0 0 50 34" fill="none" xmlns="http://www.w3.org/2000/svg">
<g clip-path="url(#clip0_358_109)">
<path d="M0 0H50V33.3333H0V0Z" fill="#006C35"/>
<path d="M32.311 24.7781H31.6165C31.5394 24.8794 31.4188 25 31.3513 25C31.2693 25 31.0475 24.7733 31.0475 24.6913C31.0475 24.6286 31.1535 24.5081 31.25 24.4309V24.2428H18.6632C17.0042 24.2428 16.1796 24.2284 15.625 23.6738H31.25V23.4857C31.1584 23.4133 31.0475 23.288 31.0475 23.2253C31.0475 23.1433 31.2693 22.9166 31.3513 22.9166C31.4333 22.9166 31.6551 23.1433 31.6551 23.2253C31.6551 23.288 31.5442 23.4133 31.4525 23.4857V23.6738H33.5745C34.1435 23.6738 34.375 23.722 34.375 24.2428C34.375 24.7974 34.2255 24.8987 33.9892 24.8987C33.9072 24.8987 33.7722 24.8939 33.6709 24.7781H32.8463C32.8245 24.8135 32.7874 24.8438 32.7397 24.8651C32.6921 24.8864 32.636 24.8977 32.5786 24.8977C32.5212 24.8977 32.4652 24.8864 32.4175 24.8651C32.3698 24.8438 32.3328 24.8135 32.311 24.7781ZM32.8463 24.6045H33.5745C33.5359 24.4984 33.5359 24.3875 33.5745 24.2428H31.4525V24.4309C31.5056 24.4695 31.5779 24.5515 31.6165 24.6045H32.311C32.3328 24.5691 32.3698 24.5389 32.4175 24.5176C32.4652 24.4963 32.5212 24.4849 32.5786 24.4849C32.636 24.4849 32.6921 24.4963 32.7397 24.5176C32.7874 24.5389 32.8245 24.5691 32.8463 24.6045Z" fill="white"/>
<path d="M34.0471 15.9337C34.0953 15.9916 34.1242 16.0446 34.0422 16.1411C33.9651 16.2086 33.912 16.2471 33.8301 16.3147C33.7963 16.3725 33.7722 16.4642 33.8831 16.4931C34.0953 16.551 34.4859 16.3002 34.4859 16.2954C34.5679 16.2375 34.539 16.1314 34.5341 16.1314C34.4859 16.0832 34.3846 16.1121 34.3171 16.1025C34.2834 16.1025 34.2641 16.0398 34.3123 15.9481C34.3557 15.8903 34.375 15.8565 34.4039 15.789C34.4329 15.7215 34.4039 15.6733 34.2882 15.6347C34.1676 15.6154 34.1194 15.625 33.9892 15.6347C33.9169 15.6492 33.8927 15.6829 33.8783 15.7649C33.8831 15.8903 33.9651 15.8806 34.0471 15.9337ZM33.1308 12.9534C33.0633 13.045 33.015 13.1173 33.1453 13.1897C33.2803 13.2572 33.4828 13.4453 33.396 13.6574C33.3478 13.8214 33.396 13.9516 33.5455 13.7153C33.6998 13.4694 33.5793 13.1752 33.4298 12.9871C33.2996 12.8231 33.2128 12.8569 33.1308 12.9534ZM37.1914 9.58723C37.3746 9.74638 37.4759 9.69815 37.3601 9.42809C37.2251 9.15803 37.0949 8.8735 36.9743 8.6179C36.8441 8.34784 36.8104 8.41053 36.6609 8.60344C36.4921 8.79151 36.4776 8.93619 36.5403 9.04711C36.8586 11.5693 37.0081 12.8858 37.0419 13.6478C37.1094 14.757 36.8248 15.3791 35.6916 16.0928C35.325 16.3291 34.9103 16.5992 35.7928 16.3918C36.6175 16.1941 37.5 15.6733 37.5 13.6816C37.5 12.1818 37.1528 10.5759 37.1914 9.58723ZM35.841 9.07604C35.7398 9.23519 35.7591 9.26894 35.8748 9.44256C35.9905 9.63546 36.0918 9.98268 36.0918 10.2527C36.0918 10.5228 36.1931 10.489 36.2413 10.2383C36.2944 9.99715 36.2751 9.52454 36.1256 9.19178C35.9761 8.83974 35.923 8.96513 35.841 9.07604ZM36.8104 14.3278C36.7766 14.1059 36.7091 13.8841 36.4101 13.4597C36.1111 13.045 35.841 12.664 35.5758 12.2975C35.4938 11.3475 35.3733 10.3299 35.3733 9.7946C35.5083 9.91999 35.6096 9.7946 35.5421 9.58723C35.4745 9.37986 35.3395 8.82527 35.2431 8.58897C35.1562 8.36231 35.0598 8.41053 34.9248 8.6179C34.809 8.82527 34.727 8.92172 34.809 9.07604C34.8428 9.99715 34.973 10.8893 35.1273 11.6947C34.8573 11.3475 34.6065 11.0147 34.375 10.7109C34.3605 10.3637 34.3268 10.0164 34.3075 9.66439C34.457 9.77531 34.5245 9.74638 34.4425 9.53901C34.375 9.31717 34.1917 8.85421 34.1098 8.65166C34.023 8.44429 33.9747 8.44429 33.859 8.60344C33.6757 8.8735 33.6227 9.06158 33.777 9.31717C33.7915 9.53901 33.8252 9.77531 33.8397 9.98268C33.6902 9.7946 33.56 9.6017 33.4394 9.42809C33.5889 9.50525 33.7095 9.37986 33.5407 9.23519C33.3912 9.09533 33.0729 8.85421 32.9427 8.6806C32.7932 8.50699 32.6582 8.50699 32.6582 8.66613C32.6582 8.82527 32.6726 8.96513 32.6582 9.1098C32.6244 9.23519 32.6244 9.3654 32.8221 9.58723C33.2079 10.0309 33.5745 10.489 33.9265 10.9183C34.0567 12.5049 34.1435 13.5224 34.1098 14.1542C34.0905 14.5351 33.9603 14.757 33.7432 14.8197C33.5262 14.9017 33.3092 14.757 33.1067 14.4725C32.7402 13.9661 32.61 14.0625 32.3254 14.5062C32.0554 14.9161 31.8721 15.2682 31.7226 15.5672C31.5924 15.8517 31.3561 16.1073 31.1391 15.7263C30.9414 15.3453 30.9076 14.9161 30.9221 14.6171C30.9221 14.3133 30.8738 14.077 30.7581 14.5544C30.4591 15.7263 30.6424 15.9819 30.9751 16.2327C31.3899 16.5847 31.5249 16.6137 31.7419 16.3147C32.1759 15.7408 32.2917 15.2344 32.5424 14.9499C32.7402 14.728 32.7402 14.9017 32.8414 15.0126C33.0922 15.3116 33.3092 15.4225 33.6564 15.4707C34.0085 15.5334 34.6402 15.2489 34.592 14.1397C34.5583 13.4742 34.51 12.5676 34.4425 11.603C34.7753 12.0467 35.0743 12.4422 35.3106 12.7605C35.4263 13.3922 35.4938 13.9661 35.4601 14.4242C35.4263 14.9499 35.5421 14.9499 35.6578 14.4098C35.6916 14.1879 35.6915 13.725 35.6433 13.1704C36.0918 13.7443 36.3571 14.1252 36.5403 14.3953C36.7429 14.728 36.8586 15.0126 36.8104 14.3278ZM32.2386 13.0787C32.2386 12.9678 32.2917 12.9341 32.4894 12.7749C32.6582 12.6495 33.126 12.3313 33.2755 12.1866C33.425 12.0467 33.5407 11.9165 33.5745 12.0949C33.5889 12.2686 33.6227 12.3313 33.4394 12.4277C33.2562 12.5049 32.7739 12.7894 32.6244 12.9003C32.4556 13.0305 32.2386 13.1897 32.2386 13.0787ZM32.2917 11.1256C32.2579 11.2703 32.0554 11.2703 32.0747 11.1112C32.0891 10.952 32.0747 10.9809 32.0747 10.8556C32.0554 10.7302 32.2242 10.6482 32.3061 10.7591C32.4074 10.87 32.5762 11.2221 32.6244 11.3475C32.6919 11.4728 32.7257 11.4439 32.7257 11.2703C32.7064 11.0629 32.6726 10.87 32.6919 10.7302C32.7064 10.6482 32.7595 10.5517 32.8559 10.4746C32.9765 10.3974 33.0392 10.3781 33.0922 10.5228C33.126 10.6482 33.2224 10.6627 33.1742 10.7784C33.1067 10.9327 32.9572 10.6193 32.8559 10.8411C32.8077 11.0002 32.8559 11.4439 32.8414 11.603C32.8414 11.7429 32.7739 11.9503 32.6582 11.714C32.5762 11.5548 32.4556 11.2848 32.2917 11.1256ZM31.1391 9.838C31.3754 9.94892 31.6262 10.0164 31.4429 9.74638C31.2548 9.49078 31.1053 9.06158 31.0089 8.74329C30.8883 8.42982 30.8594 8.44429 30.6713 8.71435C30.3916 9.12427 30.6424 9.52454 30.7051 9.99715C30.9414 11.6947 31.1728 13.426 31.2404 13.8841C31.3079 14.3953 31.3899 14.728 31.2548 15.2826C31.2066 15.4563 31.2741 15.5045 31.3899 15.2971C31.8576 14.458 31.5394 13.725 31.4911 13.2524C31.4091 12.5193 31.1391 10.5855 31.0909 9.80907M29.9913 9.76084C30.1215 9.87176 30.2758 9.87176 30.189 9.63546C30.1071 9.39433 30.0395 9.1098 29.9576 8.83974C29.8756 8.56968 29.8225 8.50699 29.7213 8.63237C29.6055 8.77705 29.5235 8.82527 29.4416 8.92172C29.3547 8.99888 29.3403 9.17249 29.4416 9.33164C29.8081 11.7284 29.8225 12.7894 29.8756 13.6816C29.9238 14.5689 30.0588 14.9788 29.4753 15.5816C28.8387 16.2327 28.4578 16.3918 28.1732 16.4545C27.8549 16.5413 27.7247 16.6667 28.0671 16.6667C29.186 16.6667 29.2969 16.3677 29.755 15.8855C30.1264 15.4948 30.3048 14.9981 30.2758 13.8214C30.2421 11.7574 29.9383 10.87 29.9913 9.76084ZM25.8054 15.8228C25.9742 15.7263 26.0561 15.6492 26.1863 15.6009C26.3214 15.5334 26.4226 15.5527 26.3214 15.8228C26.2201 16.1362 26.2731 16.2327 26.4902 16.1555C26.6879 16.0928 26.8036 16.0108 26.9724 15.9481C27.1219 15.8855 27.2907 15.8855 27.0544 16.0591C26.8711 16.2037 26.6059 16.3918 26.4564 16.4256C26.1236 16.5027 25.9549 16.3774 26.0224 16.1218C26.0899 15.8855 26.1381 15.789 25.9404 15.871C25.7041 15.9626 25.7234 15.871 25.8054 15.8228ZM28.4915 10.4264C28.5542 10.6193 28.641 10.7109 28.6892 10.4746C28.723 10.2672 28.7905 10.2045 28.8243 10.4264C28.8725 10.6482 29.0075 10.6193 29.0413 10.4119C29.0895 10.2045 29.157 10.0936 29.1908 10.3154C29.2245 10.5517 29.2052 10.6337 29.1715 10.7109C29.157 10.7784 29.022 10.8556 28.9207 10.7591C28.805 10.6627 28.7712 10.6627 28.6892 10.7446C28.506 10.9038 28.4385 10.7929 28.4047 10.571C28.3902 10.3781 28.4578 10.301 28.4915 10.4264ZM29.6055 14.4242C29.456 13.7105 28.7712 12.5676 27.7537 11.0774C27.7247 10.6819 27.7054 10.3154 27.7054 9.98268C27.8549 10.1418 27.9562 10.0454 27.908 9.838C27.8067 9.47631 27.6572 9.17249 27.474 8.76258C27.4064 8.58897 27.2232 8.54074 27.1412 8.79151C27.0206 9.09533 27.0062 9.15803 27.1557 9.3654C27.1412 9.58723 27.2232 9.96821 27.2569 10.3154C27.0737 10.0598 26.8374 9.74638 26.6541 9.47631C26.9387 9.58723 27.1074 9.50525 26.8567 9.25448C26.6059 8.98442 26.2539 8.71435 26.0368 8.52145C25.8198 8.33337 25.7234 8.45876 25.7571 8.63237C25.7716 8.8108 25.7909 8.93619 25.7716 9.07604C25.7571 9.22072 25.8054 9.31717 26.0224 9.39433C26.4564 9.93445 26.8904 10.489 27.2907 11.0629C27.3389 11.5355 27.4402 12.0612 27.4884 12.4904C27.6235 13.5031 27.8212 14.8197 27.6572 15.3936C27.5222 15.8228 27.6572 16.0108 27.8742 15.3598C28.072 14.7088 28.0527 14.0915 27.9225 13.1221C27.8694 12.746 27.8549 12.2686 27.8067 11.8249C28.506 12.8521 29.1377 13.8359 29.4223 14.5207C29.5718 14.8872 29.7068 14.9644 29.6055 14.4242ZM28.3565 8.63237C28.289 8.76258 28.2407 8.85421 28.3709 8.95066C28.506 9.04711 28.7085 9.3027 28.6217 9.58723C28.5735 9.80907 28.6217 9.98268 28.7712 9.66439C28.9207 9.33164 28.805 8.93619 28.6555 8.6806C28.5204 8.45876 28.4385 8.50699 28.3565 8.63237ZM23.423 12.0949C23.3893 12.3168 23.4375 12.4566 23.5195 12.5676C23.6063 12.6785 23.7703 12.664 23.8233 12.5386C23.8715 12.3939 23.9053 12.3795 24.0066 12.4904C24.1223 12.6013 24.5033 12.5049 24.32 11.9503C24.238 11.7284 24.2043 11.7767 24.2043 12.0274C24.2043 12.4277 24.0693 12.4277 23.9198 12.0467C23.8715 11.902 23.804 11.902 23.7895 12.0949C23.7895 12.4566 23.6208 12.5049 23.5195 12.1384C23.4857 11.984 23.4568 11.8538 23.423 12.0949ZM25.7234 12.664C26.0706 12.5868 25.8729 12.5531 25.6366 12.4084C25.3906 12.2686 25.2894 12.2686 25.3038 12.4277C25.3231 12.5193 25.3231 12.6158 25.3569 12.7412C25.4726 12.7122 25.5883 12.6978 25.7234 12.664ZM25.0386 11.8876C25.3038 11.5211 25.7378 11.632 26.2394 11.9647C26.7409 12.2975 26.5384 12.8231 26.0561 13.0932C25.9404 13.1559 25.7909 13.2186 25.6028 13.2813C25.6559 13.3922 25.5883 13.426 25.4388 13.3295C25.0048 13.4742 24.4358 13.6816 24.0403 13.8841C24.5226 13.9179 26.5239 13.8841 26.9242 13.8359C27.3245 13.8069 27.2569 13.8696 27.1412 14.2024C27.0206 14.5207 26.8904 14.4869 26.5577 14.5351C26.0224 14.6316 25.2363 14.8534 24.6721 15.0753C24.103 15.2971 24.3056 15.6926 24.8891 15.8999C25.3376 16.0108 25.2894 16.0591 25.2074 16.3147C25.1399 16.551 25.1399 16.6137 24.5901 16.5365C23.2398 16.3291 22.7527 15.6154 22.5357 15.0608C21.7062 16.1845 20.8864 16.8066 20.1196 16.6137C19.7386 16.5365 19.5554 16.2037 19.5216 15.789C18.9863 16.0253 18.369 16.2327 17.5685 16.4545C17.3852 16.5172 17.2357 16.44 17.4865 16.3291C18.017 16.0735 18.8513 15.6492 19.5361 15.1862C19.6036 14.9017 19.7531 14.5062 19.9026 14.2169C19.9846 14.0433 20.0376 14.1059 20.0376 14.2506C20.0376 14.3615 20.0039 14.6461 20.0183 14.8534C20.1389 14.757 20.3029 14.6654 20.3848 14.5834C20.8526 14.1879 21.3686 13.9323 21.0214 13.3006C20.8719 13.0112 20.7514 12.8087 20.7031 12.6785C20.4041 12.5676 20.4861 12.4084 20.6211 12.1384C20.7514 11.8731 20.8044 11.8056 21.0696 12.1094C21.4554 12.5386 21.5037 12.7267 21.2384 12.6978C21.6532 13.7105 21.5519 14.2362 20.9057 14.839C20.6019 15.138 20.2884 15.3791 19.9219 15.5672C19.8881 15.8372 20.0039 16.1073 20.5343 16.0253C21.2384 15.9337 22.0197 15.0608 22.3524 14.3953C22.2029 13.8359 21.8702 12.8376 21.6725 12.3313C21.5712 12.0757 21.6725 11.9647 21.7544 11.7574C21.8557 11.5548 21.9039 11.4246 22.0197 11.714C22.1354 11.984 22.5019 12.664 22.6707 13.4742C22.854 14.2844 22.8202 14.9788 23.2542 15.3598C23.4568 15.5334 23.7027 15.6492 23.9728 15.7118C23.7703 15.1717 24.1898 14.757 24.7396 14.5689C24.4068 14.2651 23.886 14.3133 23.3025 14.2844C22.8733 14.2651 22.9215 14.2169 23.0372 13.8552C23.153 13.4887 23.288 13.4404 23.6063 13.315C24.0403 13.1559 24.4695 12.9968 24.9228 12.8714C24.6383 12.4759 24.8216 12.1866 25.0386 11.8876ZM22.936 8.63237C22.8202 8.74329 22.8202 8.76258 22.9215 8.90243C23.0228 9.01335 23.1723 9.3654 23.1192 9.72709C23.1047 9.88623 23.1385 10.0454 23.2205 9.76084C23.288 9.47631 23.2687 9.07604 23.1867 8.83974C23.1047 8.60344 23.0035 8.54074 22.936 8.63237ZM20.6694 9.25448C20.4041 9.96821 20.4186 10.6482 20.9684 11.2365C21.2867 11.5693 21.5181 11.4101 21.6532 11.0436C21.8027 10.6964 21.9039 10.3492 22.0052 10.1081C22.1017 9.87176 22.1885 9.91999 22.1692 10.1418C22.1209 10.5855 22.0872 11.2992 22.555 11.5693C23.0228 11.8394 23.7365 11.3812 23.9873 10.9038C24.7396 11.8538 25.4051 11.4101 25.4871 10.489C25.5064 10.2045 25.3713 9.58723 25.2894 9.41362C25.2074 9.22072 25.2556 9.22072 25.3713 9.31717C25.4871 9.42809 25.6896 9.49078 25.5883 9.17249C25.4726 8.8735 25.3376 8.69989 25.1543 8.55521C24.9904 8.41053 24.9566 8.49252 24.8891 8.60344C24.8216 8.71435 24.836 8.74329 24.7396 8.82527C24.6383 8.92172 24.6528 8.96513 24.7396 9.14356C25.0193 9.838 25.2894 10.8556 24.836 10.952C24.4213 11.0292 24.1561 10.1708 24.1368 9.7946C24.1223 9.28341 24.0548 8.85421 23.9535 8.58897C23.8812 8.41536 23.8378 8.33337 23.7992 8.33337C23.7317 8.33337 23.6352 8.60826 23.5725 8.71435C23.505 8.82527 23.5725 8.85421 23.6208 9.07604C23.8715 10.19 23.8378 10.6964 23.3025 10.9809C22.772 11.2848 22.4875 11.0002 22.4875 10.6482C22.473 10.301 22.473 9.87176 22.5212 9.55347C22.555 9.23519 22.637 9.19178 22.5212 9.03264C22.4055 8.85421 22.3042 8.92172 22.1547 9.12427C21.822 9.56794 21.4892 10.3154 21.3686 10.6627C21.2529 11.0292 21.0214 10.9038 20.8526 10.6C20.6694 10.2383 20.6887 9.58723 20.7514 9.33164C20.8189 9.07604 20.7851 8.96513 20.6694 9.25448ZM19.9846 8.98442C20.0183 8.88797 19.9363 8.79151 19.8688 8.93619C19.8206 9.04711 19.8013 9.12427 19.9026 9.19178C19.9363 9.12427 19.9701 9.04711 19.9846 8.98442ZM19.5843 8.83974C19.7868 8.34784 20.4524 8.41053 20.2691 9.04711C20.2546 9.14356 20.2016 9.26894 20.1389 9.39433C20.2353 9.52454 20.1871 9.68368 19.9846 9.64992C19.7676 9.98268 19.3528 10.3492 18.6343 10.6482C18.3015 10.7929 18.2533 10.6819 18.5041 10.5373C18.9863 10.2383 19.4348 9.87176 19.7193 9.49078C19.5023 9.31717 19.5023 9.06158 19.5843 8.83974ZM19.4686 10.6C19.2708 10.8411 19.1213 11.1883 19.401 11.3957C19.5554 11.5211 19.8688 11.3812 19.9846 11.1401C20.1051 10.8893 20.0521 10.8556 19.8544 11.0629C19.5698 11.3619 19.2853 11.0919 19.5843 10.6819C19.7868 10.3974 19.6711 10.3299 19.4686 10.6ZM19.0201 14.0915C19.0538 14.2024 19.0345 14.458 18.9863 14.5689C18.9188 14.7088 18.9863 14.7763 19.0876 14.5978C19.184 14.4098 19.2515 14.1879 19.2033 13.9661C19.184 13.8069 19.184 13.7587 19.0345 13.696C18.8706 13.6333 18.8175 13.725 18.7693 13.8552C18.7018 14.0143 18.7838 14.1879 19.0201 14.0915ZM16.4497 13.045C16.1507 13.1221 16.1024 13.0112 16.1169 12.8376C16.1362 12.664 16.1507 12.6158 16.3532 12.6978C16.4352 12.7267 16.5365 12.8376 16.6377 12.9823C16.5702 12.9968 16.5027 13.0305 16.4497 13.045ZM16.7004 12.3313C16.4014 12.0467 16.1507 12.0274 15.8999 12.3795C15.6684 12.7122 15.6829 12.7894 15.7022 13.0932C15.7166 13.3922 15.6539 13.5031 15.8999 13.5851C16.1362 13.6623 16.2375 13.6333 16.387 13.5851C16.5027 13.5514 16.6667 13.5031 16.8355 13.4404C16.8692 13.5996 16.8499 13.7732 16.7535 13.9034C16.1362 14.5978 15.1861 15.109 14.7666 14.6461C14.5351 14.3953 14.4338 13.995 14.5014 13.5224C14.5689 13.1221 14.4338 13.3006 14.3856 13.4404C14.2361 13.9034 14.1831 14.5689 14.3856 14.9017C14.6701 15.3598 15.1186 15.5672 15.8372 15.2682C16.5509 14.9644 17.2502 14.4242 17.2213 13.6816C17.2213 13.5369 17.202 13.4115 17.202 13.315C17.2695 13.2813 17.3852 13.2041 17.4672 13.1704C17.4865 13.426 17.4527 13.7443 17.4672 13.995C17.501 14.8052 17.1682 15.0415 16.8692 15.2682C16.4497 15.5816 15.8854 15.789 15.4032 15.871C14.2506 16.0253 13.9853 15.3309 13.9998 14.3953C13.9998 14.2506 14.0673 14.1542 14.0673 13.9468C14.0529 13.5514 13.9998 13.614 13.8696 14.0143C13.749 14.3953 13.5995 15.2826 13.9853 16.0108C14.3856 16.7439 15.7359 16.5365 16.7872 16.0591C17.8193 15.5816 17.935 14.6798 17.8868 13.7732C17.8868 13.5369 17.8675 13.2813 17.853 13.0112C17.8868 12.9968 17.9012 12.9678 17.9205 12.9485C18.07 13.4115 18.7693 13.2813 18.9863 13.0112C19.102 12.8858 19.102 12.8714 19.2033 13.0112C19.3528 13.2186 19.8688 13.2813 20.0039 12.9968C20.1196 12.6978 20.1051 12.4084 20.0714 12.1866C20.0376 11.9647 19.9846 11.984 19.8351 12.0949C19.6711 12.2203 19.8013 12.2348 19.8206 12.3939C19.8881 12.9968 19.3383 12.9485 19.2708 12.3313C19.2371 11.9503 19.1696 12.0949 19.1213 12.2686C18.885 13.0112 18.2002 13.1559 18.2677 12.2975C18.287 12.0467 18.1182 12.1239 18.0363 12.2203C17.9543 12.283 17.8868 12.365 17.8048 12.4084C17.7517 11.714 17.7035 10.9183 17.6167 9.96821C17.8193 10.2045 18.0025 9.93445 17.8675 9.66439C17.771 9.45702 17.6167 8.99888 17.5203 8.74329C17.4334 8.49252 17.3852 8.56968 17.1682 8.77705C16.9705 8.99888 17.0042 9.04711 17.1007 9.26894C17.0669 9.53901 17.12 9.80907 17.1875 10.3637C17.2357 10.7591 17.3708 11.5838 17.4334 12.6302C17.337 12.6785 17.1875 12.7749 17.0862 12.8232C17.0042 12.6495 16.8837 12.5049 16.7004 12.3313ZM13.1173 14.3471C13.1318 14.5062 13.1318 14.6171 13.1318 14.6798C13.1318 14.7907 13.0691 14.9017 13.0353 15.0415C12.8328 15.7263 13.1318 16.0591 13.3005 15.8035C13.45 15.5527 13.532 15.5816 13.5176 15.789C13.5031 16.4738 12.8183 16.5172 12.7652 15.9481C12.6833 15.0415 12.9003 14.9017 12.9678 14.5978C13.016 14.3953 13.0835 14.2362 13.1173 14.3471ZM12.7652 13.344C13.2523 12.7894 13.8696 12.5049 14.1831 12.4084C14.3856 12.3457 14.4869 12.2686 14.4869 12.4566C14.5014 12.6302 14.4869 12.6495 14.3181 12.6978C13.9323 12.7894 13.1318 13.1704 12.8665 13.3633C12.7363 13.4597 12.5675 13.5706 12.7652 13.344ZM15.4851 8.56968C15.4369 8.69989 15.4707 8.85421 15.5527 8.95066C15.6346 9.06158 15.7841 9.06158 15.8854 8.98442C15.9674 8.88797 15.9674 8.8735 16.0542 8.99888C16.1024 9.09533 16.2664 9.06158 16.3194 8.96513C16.3532 8.88797 16.4014 8.8108 16.3532 8.69989C16.3002 8.58897 16.3002 8.6179 16.2664 8.74329C16.2375 8.95066 16.0349 8.90243 16.0204 8.65166C16.0204 8.41053 15.9674 8.54074 15.8999 8.69989C15.7841 8.93619 15.6202 8.88797 15.6202 8.6806C15.6202 8.50699 15.5671 8.36231 15.4851 8.56968ZM14.7666 11.902C14.8196 12.4759 14.9836 13.5369 14.9836 13.9034C15.0029 14.2844 15.0511 14.1735 15.1524 13.9661C15.2537 13.7587 15.2344 13.5369 15.2199 13.2331C15.1861 12.9196 15.1669 12.3939 15.0993 11.6802C15.2344 11.5838 15.3501 11.4246 15.4032 11.333C15.5334 11.0919 15.5671 11.1112 15.6202 11.2992C15.7166 11.6802 16.1169 11.9358 16.6522 11.5693C17.1537 11.2365 16.9367 10.5373 16.7197 9.77531C16.903 9.80907 16.9705 9.66439 16.8499 9.47631C16.8017 9.3654 16.7004 9.26894 16.6184 9.17249C16.5365 9.07604 16.4497 8.99888 16.3677 9.09533C16.3002 9.19178 16.2182 9.26894 16.1699 9.33164C16.1169 9.39433 16.1169 9.45702 16.1844 9.61617C16.387 10.0598 16.5172 10.5373 16.5509 10.8073C16.604 11.0629 16.5027 11.1256 16.3194 11.1256C16.1362 11.1256 15.8854 11.0774 15.7841 10.6964C15.6829 10.3154 15.6346 10.1418 15.6539 9.88623C15.6684 9.63546 15.7022 9.45702 15.5189 9.20625C15.3164 8.95066 15.3019 8.99888 15.2537 9.12427C15.2199 9.26894 15.1524 9.47631 15.2199 9.71262C15.3019 10.0598 15.3501 10.3637 15.4032 10.571C15.4369 10.7109 15.2826 11.0147 15.0704 11.1738C15.0174 10.6964 14.9354 10.0598 14.9016 9.55347C15.1861 9.45702 15.0367 9.09533 14.8003 8.69989C14.6364 8.39607 14.5689 8.52145 14.4531 8.71435C14.3326 8.90243 14.4194 8.98442 14.5014 9.14356C14.4338 9.26894 14.5496 9.45702 14.6026 9.80907C14.6171 10.0309 14.6701 10.6627 14.7184 11.2221C14.4869 11.2221 14.3519 11.0774 14.2699 10.8893C14.0866 10.489 14.1348 10.1274 14.2168 9.88623C14.3036 9.64992 14.3856 9.28341 14.2361 9.19178C14.1011 9.09533 13.9178 9.20625 13.8021 9.37986C13.5995 9.66439 13.4163 10.0791 13.4018 10.5083C13.3825 10.6819 13.3343 11.0147 13.2523 11.1401C13.1848 11.2703 13.0691 11.2848 12.9485 11.0919C12.7508 10.7929 12.6833 10.0309 12.7025 9.63546C12.7025 9.44256 12.6495 9.41362 12.582 9.63546C12.5241 9.838 12.5 10.0454 12.5 10.2431C12.5 10.8025 12.664 11.3137 12.799 11.5693C12.9823 11.9165 13.2186 11.8394 13.3825 11.5548C13.6333 11.1256 13.532 10.7446 13.7683 10.1081C13.9034 9.71262 13.9516 10.0164 13.9034 10.2527C13.7828 10.8893 13.8166 11.9165 14.7666 11.902ZM13.3343 9.41362C13.5031 8.96513 13.5176 8.56968 13.3198 8.71435C13.151 8.83974 13.0498 8.71435 13.1848 8.56968C13.3488 8.36231 13.5658 8.29962 13.6188 8.65166C13.6333 8.92172 13.4356 9.25448 13.3343 9.41362Z" fill="white"/>
</g>
<defs>
<clipPath id="clip0_358_109">
<rect width="50" height="33.3333" rx="5" fill="white"/>
</clipPath>
</defs>
</svg>
